<mxfile host="app.diagrams.net" agent="Mozilla/5.0 (Windows NT 10.0; Win64; x64) AppleWebKit/537.36 (KHTML, like Gecko) Chrome/109.0.0.0 Safari/537.36" version="24.7.17" pages="2">
  <diagram id="wAy4vhd5XbK0gGwZ-0dk" name="Entidades">
    <mxGraphModel dx="1862" dy="532" grid="1" gridSize="10" guides="1" tooltips="1" connect="1" arrows="1" fold="1" page="1" pageScale="1" pageWidth="827" pageHeight="1169" math="0" shadow="0">
      <root>
        <mxCell id="0" />
        <mxCell id="1" parent="0" />
        <mxCell id="grWFi5fEnYfhVKXlS2z6-1" value="USUARIO" style="rounded=0;whiteSpace=wrap;html=1;fillColor=#a20025;strokeColor=#6F0000;fontColor=#ffffff;fontStyle=1" parent="1" vertex="1">
          <mxGeometry x="65" y="90" width="140" height="50" as="geometry" />
        </mxCell>
        <mxCell id="grWFi5fEnYfhVKXlS2z6-2" value="" style="ellipse;whiteSpace=wrap;html=1;fillColor=#000000;" parent="1" vertex="1">
          <mxGeometry x="170" y="50" width="20" height="20" as="geometry" />
        </mxCell>
        <mxCell id="grWFi5fEnYfhVKXlS2z6-3" value="" style="endArrow=none;html=1;" parent="1" target="grWFi5fEnYfhVKXlS2z6-2" edge="1">
          <mxGeometry width="50" height="50" relative="1" as="geometry">
            <mxPoint x="180" y="90" as="sourcePoint" />
            <mxPoint x="425" y="210" as="targetPoint" />
          </mxGeometry>
        </mxCell>
        <mxCell id="grWFi5fEnYfhVKXlS2z6-4" value="" style="ellipse;whiteSpace=wrap;html=1;fillColor=#FFFFFF;" parent="1" vertex="1">
          <mxGeometry x="125" y="50" width="20" height="20" as="geometry" />
        </mxCell>
        <mxCell id="grWFi5fEnYfhVKXlS2z6-5" value="" style="endArrow=none;html=1;" parent="1" target="grWFi5fEnYfhVKXlS2z6-4" edge="1">
          <mxGeometry width="50" height="50" relative="1" as="geometry">
            <mxPoint x="135" y="90" as="sourcePoint" />
            <mxPoint x="380" y="210" as="targetPoint" />
          </mxGeometry>
        </mxCell>
        <mxCell id="grWFi5fEnYfhVKXlS2z6-6" value="" style="ellipse;whiteSpace=wrap;html=1;fillColor=#FFFFFF;" parent="1" vertex="1">
          <mxGeometry x="85" y="50" width="20" height="20" as="geometry" />
        </mxCell>
        <mxCell id="grWFi5fEnYfhVKXlS2z6-7" value="" style="endArrow=none;html=1;" parent="1" target="grWFi5fEnYfhVKXlS2z6-6" edge="1">
          <mxGeometry width="50" height="50" relative="1" as="geometry">
            <mxPoint x="95" y="90" as="sourcePoint" />
            <mxPoint x="340" y="210" as="targetPoint" />
          </mxGeometry>
        </mxCell>
        <mxCell id="grWFi5fEnYfhVKXlS2z6-8" value="" style="ellipse;whiteSpace=wrap;html=1;fillColor=#FFFFFF;" parent="1" vertex="1">
          <mxGeometry x="25" y="60" width="20" height="20" as="geometry" />
        </mxCell>
        <mxCell id="grWFi5fEnYfhVKXlS2z6-9" value="" style="endArrow=none;html=1;exitX=0;exitY=0;exitDx=0;exitDy=0;" parent="1" source="grWFi5fEnYfhVKXlS2z6-1" target="grWFi5fEnYfhVKXlS2z6-8" edge="1">
          <mxGeometry width="50" height="50" relative="1" as="geometry">
            <mxPoint x="35" y="90" as="sourcePoint" />
            <mxPoint x="280" y="210" as="targetPoint" />
          </mxGeometry>
        </mxCell>
        <mxCell id="grWFi5fEnYfhVKXlS2z6-10" value="nombre" style="text;html=1;align=center;verticalAlign=middle;resizable=0;points=[];autosize=1;" parent="1" vertex="1">
          <mxGeometry x="110" y="30" width="60" height="20" as="geometry" />
        </mxCell>
        <mxCell id="grWFi5fEnYfhVKXlS2z6-11" value="id_usuario" style="text;html=1;align=center;verticalAlign=middle;resizable=0;points=[];autosize=1;" parent="1" vertex="1">
          <mxGeometry x="175" y="30" width="70" height="20" as="geometry" />
        </mxCell>
        <mxCell id="grWFi5fEnYfhVKXlS2z6-12" value="apellido" style="text;html=1;align=center;verticalAlign=middle;resizable=0;points=[];autosize=1;" parent="1" vertex="1">
          <mxGeometry x="50" y="30" width="60" height="20" as="geometry" />
        </mxCell>
        <mxCell id="grWFi5fEnYfhVKXlS2z6-13" value="correo" style="text;html=1;align=center;verticalAlign=middle;resizable=0;points=[];autosize=1;" parent="1" vertex="1">
          <mxGeometry y="40" width="50" height="20" as="geometry" />
        </mxCell>
        <mxCell id="grWFi5fEnYfhVKXlS2z6-14" value="" style="ellipse;whiteSpace=wrap;html=1;fillColor=#FFFFFF;" parent="1" vertex="1">
          <mxGeometry x="15" y="100" width="20" height="20" as="geometry" />
        </mxCell>
        <mxCell id="grWFi5fEnYfhVKXlS2z6-15" value="" style="endArrow=none;html=1;exitX=0;exitY=0.5;exitDx=0;exitDy=0;" parent="1" source="grWFi5fEnYfhVKXlS2z6-1" target="grWFi5fEnYfhVKXlS2z6-14" edge="1">
          <mxGeometry width="50" height="50" relative="1" as="geometry">
            <mxPoint x="65" y="100" as="sourcePoint" />
            <mxPoint x="280" y="290" as="targetPoint" />
          </mxGeometry>
        </mxCell>
        <mxCell id="grWFi5fEnYfhVKXlS2z6-16" value="" style="ellipse;whiteSpace=wrap;html=1;fillColor=#FFFFFF;" parent="1" vertex="1">
          <mxGeometry x="15" y="140" width="20" height="20" as="geometry" />
        </mxCell>
        <mxCell id="grWFi5fEnYfhVKXlS2z6-17" value="" style="endArrow=none;html=1;exitX=0;exitY=0.75;exitDx=0;exitDy=0;" parent="1" source="grWFi5fEnYfhVKXlS2z6-1" target="grWFi5fEnYfhVKXlS2z6-16" edge="1">
          <mxGeometry width="50" height="50" relative="1" as="geometry">
            <mxPoint x="85" y="140" as="sourcePoint" />
            <mxPoint x="330" y="320" as="targetPoint" />
          </mxGeometry>
        </mxCell>
        <mxCell id="grWFi5fEnYfhVKXlS2z6-18" value="contraseña" style="text;html=1;align=center;verticalAlign=middle;resizable=0;points=[];autosize=1;" parent="1" vertex="1">
          <mxGeometry x="-29" y="81" width="80" height="20" as="geometry" />
        </mxCell>
        <mxCell id="grWFi5fEnYfhVKXlS2z6-19" value="dirección" style="text;html=1;align=center;verticalAlign=middle;resizable=0;points=[];autosize=1;" parent="1" vertex="1">
          <mxGeometry x="-24" y="170" width="70" height="20" as="geometry" />
        </mxCell>
        <mxCell id="grWFi5fEnYfhVKXlS2z6-20" value="" style="ellipse;whiteSpace=wrap;html=1;fillColor=#FFFFFF;" parent="1" vertex="1">
          <mxGeometry x="65" y="171" width="20" height="20" as="geometry" />
        </mxCell>
        <mxCell id="grWFi5fEnYfhVKXlS2z6-21" value="" style="endArrow=none;html=1;exitX=0.421;exitY=0.98;exitDx=0;exitDy=0;exitPerimeter=0;" parent="1" target="grWFi5fEnYfhVKXlS2z6-20" edge="1">
          <mxGeometry width="50" height="50" relative="1" as="geometry">
            <mxPoint x="73.94000000000005" y="140" as="sourcePoint" />
            <mxPoint x="320" y="321" as="targetPoint" />
          </mxGeometry>
        </mxCell>
        <mxCell id="grWFi5fEnYfhVKXlS2z6-22" value="telefono" style="text;html=1;align=center;verticalAlign=middle;resizable=0;points=[];autosize=1;" parent="1" vertex="1">
          <mxGeometry x="35" y="191" width="60" height="20" as="geometry" />
        </mxCell>
        <mxCell id="grWFi5fEnYfhVKXlS2z6-29" value="" style="ellipse;whiteSpace=wrap;html=1;fillColor=#FFFFFF;" parent="1" vertex="1">
          <mxGeometry x="130" y="171" width="20" height="20" as="geometry" />
        </mxCell>
        <mxCell id="grWFi5fEnYfhVKXlS2z6-30" value="" style="endArrow=none;html=1;" parent="1" source="grWFi5fEnYfhVKXlS2z6-1" target="grWFi5fEnYfhVKXlS2z6-29" edge="1">
          <mxGeometry width="50" height="50" relative="1" as="geometry">
            <mxPoint x="140" y="141" as="sourcePoint" />
            <mxPoint x="370" y="332" as="targetPoint" />
          </mxGeometry>
        </mxCell>
        <mxCell id="grWFi5fEnYfhVKXlS2z6-31" value="" style="ellipse;whiteSpace=wrap;html=1;fillColor=#FFFFFF;" parent="1" vertex="1">
          <mxGeometry x="200" y="151" width="20" height="20" as="geometry" />
        </mxCell>
        <mxCell id="grWFi5fEnYfhVKXlS2z6-32" value="" style="endArrow=none;html=1;exitX=0.25;exitY=1;exitDx=0;exitDy=0;" parent="1" target="grWFi5fEnYfhVKXlS2z6-31" edge="1">
          <mxGeometry width="50" height="50" relative="1" as="geometry">
            <mxPoint x="190" y="140" as="sourcePoint" />
            <mxPoint x="420" y="331" as="targetPoint" />
          </mxGeometry>
        </mxCell>
        <mxCell id="grWFi5fEnYfhVKXlS2z6-33" value="fecha_creacion" style="text;html=1;align=center;verticalAlign=middle;resizable=0;points=[];autosize=1;" parent="1" vertex="1">
          <mxGeometry x="105" y="191" width="100" height="20" as="geometry" />
        </mxCell>
        <mxCell id="grWFi5fEnYfhVKXlS2z6-34" value="fecha_modificacion" style="text;html=1;align=center;verticalAlign=middle;resizable=0;points=[];autosize=1;" parent="1" vertex="1">
          <mxGeometry x="161" y="170" width="120" height="20" as="geometry" />
        </mxCell>
        <mxCell id="grWFi5fEnYfhVKXlS2z6-56" value="fecha_modificacion" style="text;html=1;align=center;verticalAlign=middle;resizable=0;points=[];autosize=1;" parent="1" vertex="1">
          <mxGeometry x="364" y="190" width="120" height="20" as="geometry" />
        </mxCell>
        <mxCell id="VEZ3CeDTypVAN3sfgGV9-2" value="ROL" style="rounded=0;whiteSpace=wrap;html=1;fillColor=#a20025;strokeColor=#6F0000;fontColor=#ffffff;fontStyle=1" parent="1" vertex="1">
          <mxGeometry x="65" y="295" width="140" height="50" as="geometry" />
        </mxCell>
        <mxCell id="VEZ3CeDTypVAN3sfgGV9-3" value="" style="ellipse;whiteSpace=wrap;html=1;fillColor=#000000;" parent="1" vertex="1">
          <mxGeometry x="170" y="255" width="20" height="20" as="geometry" />
        </mxCell>
        <mxCell id="VEZ3CeDTypVAN3sfgGV9-4" value="" style="endArrow=none;html=1;" parent="1" target="VEZ3CeDTypVAN3sfgGV9-3" edge="1">
          <mxGeometry width="50" height="50" relative="1" as="geometry">
            <mxPoint x="180" y="295" as="sourcePoint" />
            <mxPoint x="425" y="415" as="targetPoint" />
          </mxGeometry>
        </mxCell>
        <mxCell id="VEZ3CeDTypVAN3sfgGV9-5" value="" style="ellipse;whiteSpace=wrap;html=1;fillColor=#FFFFFF;" parent="1" vertex="1">
          <mxGeometry x="125" y="255" width="20" height="20" as="geometry" />
        </mxCell>
        <mxCell id="VEZ3CeDTypVAN3sfgGV9-6" value="" style="endArrow=none;html=1;" parent="1" target="VEZ3CeDTypVAN3sfgGV9-5" edge="1">
          <mxGeometry width="50" height="50" relative="1" as="geometry">
            <mxPoint x="135" y="295" as="sourcePoint" />
            <mxPoint x="380" y="415" as="targetPoint" />
          </mxGeometry>
        </mxCell>
        <mxCell id="VEZ3CeDTypVAN3sfgGV9-7" value="" style="ellipse;whiteSpace=wrap;html=1;fillColor=#FFFFFF;" parent="1" vertex="1">
          <mxGeometry x="85" y="255" width="20" height="20" as="geometry" />
        </mxCell>
        <mxCell id="VEZ3CeDTypVAN3sfgGV9-8" value="" style="endArrow=none;html=1;" parent="1" target="VEZ3CeDTypVAN3sfgGV9-7" edge="1">
          <mxGeometry width="50" height="50" relative="1" as="geometry">
            <mxPoint x="95" y="295" as="sourcePoint" />
            <mxPoint x="340" y="415" as="targetPoint" />
          </mxGeometry>
        </mxCell>
        <mxCell id="VEZ3CeDTypVAN3sfgGV9-11" value="nombre" style="text;html=1;align=center;verticalAlign=middle;resizable=0;points=[];autosize=1;" parent="1" vertex="1">
          <mxGeometry x="110" y="235" width="60" height="20" as="geometry" />
        </mxCell>
        <mxCell id="VEZ3CeDTypVAN3sfgGV9-12" value="id_rol" style="text;html=1;align=center;verticalAlign=middle;resizable=0;points=[];autosize=1;" parent="1" vertex="1">
          <mxGeometry x="170" y="235" width="50" height="20" as="geometry" />
        </mxCell>
        <mxCell id="VEZ3CeDTypVAN3sfgGV9-13" value="descripcion" style="text;html=1;align=center;verticalAlign=middle;resizable=0;points=[];autosize=1;" parent="1" vertex="1">
          <mxGeometry x="40" y="235" width="80" height="20" as="geometry" />
        </mxCell>
        <mxCell id="6MHuE7Aki8oT2BPWVEkP-1" value="CATEGORIA" style="rounded=0;whiteSpace=wrap;html=1;fillColor=#a20025;strokeColor=#6F0000;fontColor=#ffffff;fontStyle=1" parent="1" vertex="1">
          <mxGeometry x="258" y="285" width="140" height="50" as="geometry" />
        </mxCell>
        <mxCell id="6MHuE7Aki8oT2BPWVEkP-2" value="" style="ellipse;whiteSpace=wrap;html=1;fillColor=#000000;" parent="1" vertex="1">
          <mxGeometry x="363" y="245" width="20" height="20" as="geometry" />
        </mxCell>
        <mxCell id="6MHuE7Aki8oT2BPWVEkP-3" value="" style="endArrow=none;html=1;" parent="1" target="6MHuE7Aki8oT2BPWVEkP-2" edge="1">
          <mxGeometry width="50" height="50" relative="1" as="geometry">
            <mxPoint x="373" y="285" as="sourcePoint" />
            <mxPoint x="618" y="405" as="targetPoint" />
          </mxGeometry>
        </mxCell>
        <mxCell id="6MHuE7Aki8oT2BPWVEkP-4" value="" style="ellipse;whiteSpace=wrap;html=1;fillColor=#FFFFFF;" parent="1" vertex="1">
          <mxGeometry x="318" y="245" width="20" height="20" as="geometry" />
        </mxCell>
        <mxCell id="6MHuE7Aki8oT2BPWVEkP-5" value="" style="endArrow=none;html=1;" parent="1" target="6MHuE7Aki8oT2BPWVEkP-4" edge="1">
          <mxGeometry width="50" height="50" relative="1" as="geometry">
            <mxPoint x="328" y="285" as="sourcePoint" />
            <mxPoint x="573" y="405" as="targetPoint" />
          </mxGeometry>
        </mxCell>
        <mxCell id="6MHuE7Aki8oT2BPWVEkP-8" value="nombre" style="text;html=1;align=center;verticalAlign=middle;resizable=0;points=[];autosize=1;" parent="1" vertex="1">
          <mxGeometry x="303" y="220" width="60" height="20" as="geometry" />
        </mxCell>
        <mxCell id="6MHuE7Aki8oT2BPWVEkP-9" value="id_categoria" style="text;html=1;align=center;verticalAlign=middle;resizable=0;points=[];autosize=1;" parent="1" vertex="1">
          <mxGeometry x="364" y="220" width="80" height="20" as="geometry" />
        </mxCell>
        <mxCell id="bo6oeLUeWREoOMR-rEIQ-1" value="PEDIDO" style="rounded=0;whiteSpace=wrap;html=1;fillColor=#a20025;strokeColor=#6F0000;fontColor=#ffffff;fontStyle=1" parent="1" vertex="1">
          <mxGeometry x="68" y="430" width="140" height="50" as="geometry" />
        </mxCell>
        <mxCell id="bo6oeLUeWREoOMR-rEIQ-2" value="" style="ellipse;whiteSpace=wrap;html=1;fillColor=#000000;" parent="1" vertex="1">
          <mxGeometry x="173" y="390" width="20" height="20" as="geometry" />
        </mxCell>
        <mxCell id="bo6oeLUeWREoOMR-rEIQ-3" value="" style="endArrow=none;html=1;" parent="1" target="bo6oeLUeWREoOMR-rEIQ-2" edge="1">
          <mxGeometry width="50" height="50" relative="1" as="geometry">
            <mxPoint x="183" y="430" as="sourcePoint" />
            <mxPoint x="428" y="550" as="targetPoint" />
          </mxGeometry>
        </mxCell>
        <mxCell id="bo6oeLUeWREoOMR-rEIQ-11" value="id_pedido" style="text;html=1;align=center;verticalAlign=middle;resizable=0;points=[];autosize=1;" parent="1" vertex="1">
          <mxGeometry x="178" y="370" width="70" height="20" as="geometry" />
        </mxCell>
        <mxCell id="bo6oeLUeWREoOMR-rEIQ-14" value="" style="ellipse;whiteSpace=wrap;html=1;fillColor=#FFFFFF;" parent="1" vertex="1">
          <mxGeometry x="18" y="440" width="20" height="20" as="geometry" />
        </mxCell>
        <mxCell id="bo6oeLUeWREoOMR-rEIQ-15" value="" style="endArrow=none;html=1;exitX=0;exitY=0.5;exitDx=0;exitDy=0;" parent="1" source="bo6oeLUeWREoOMR-rEIQ-1" target="bo6oeLUeWREoOMR-rEIQ-14" edge="1">
          <mxGeometry width="50" height="50" relative="1" as="geometry">
            <mxPoint x="68" y="440" as="sourcePoint" />
            <mxPoint x="283" y="630" as="targetPoint" />
          </mxGeometry>
        </mxCell>
        <mxCell id="bo6oeLUeWREoOMR-rEIQ-16" value="" style="ellipse;whiteSpace=wrap;html=1;fillColor=#FFFFFF;" parent="1" vertex="1">
          <mxGeometry x="18" y="480" width="20" height="20" as="geometry" />
        </mxCell>
        <mxCell id="bo6oeLUeWREoOMR-rEIQ-17" value="" style="endArrow=none;html=1;exitX=0;exitY=0.75;exitDx=0;exitDy=0;" parent="1" source="bo6oeLUeWREoOMR-rEIQ-1" target="bo6oeLUeWREoOMR-rEIQ-16" edge="1">
          <mxGeometry width="50" height="50" relative="1" as="geometry">
            <mxPoint x="88" y="480" as="sourcePoint" />
            <mxPoint x="333" y="660" as="targetPoint" />
          </mxGeometry>
        </mxCell>
        <mxCell id="bo6oeLUeWREoOMR-rEIQ-18" value="fecha_modificacion" style="text;html=1;align=center;verticalAlign=middle;resizable=0;points=[];autosize=1;" parent="1" vertex="1">
          <mxGeometry x="-67" y="420" width="120" height="20" as="geometry" />
        </mxCell>
        <mxCell id="bo6oeLUeWREoOMR-rEIQ-19" value="fecha_pedido" style="text;html=1;align=center;verticalAlign=middle;resizable=0;points=[];autosize=1;" parent="1" vertex="1">
          <mxGeometry x="-26" y="500" width="90" height="20" as="geometry" />
        </mxCell>
        <mxCell id="bo6oeLUeWREoOMR-rEIQ-20" value="" style="ellipse;whiteSpace=wrap;html=1;fillColor=#FFFFFF;" parent="1" vertex="1">
          <mxGeometry x="68" y="511" width="20" height="20" as="geometry" />
        </mxCell>
        <mxCell id="bo6oeLUeWREoOMR-rEIQ-21" value="" style="endArrow=none;html=1;exitX=0.421;exitY=0.98;exitDx=0;exitDy=0;exitPerimeter=0;" parent="1" target="bo6oeLUeWREoOMR-rEIQ-20" edge="1">
          <mxGeometry width="50" height="50" relative="1" as="geometry">
            <mxPoint x="76.94000000000005" y="480" as="sourcePoint" />
            <mxPoint x="323" y="661" as="targetPoint" />
          </mxGeometry>
        </mxCell>
        <mxCell id="bo6oeLUeWREoOMR-rEIQ-22" value="estado" style="text;html=1;align=center;verticalAlign=middle;resizable=0;points=[];autosize=1;" parent="1" vertex="1">
          <mxGeometry x="55" y="531" width="50" height="20" as="geometry" />
        </mxCell>
        <mxCell id="T3vL6f9uhzSgvhDSYpIT-6" value="fecha_creacion" style="text;html=1;align=center;verticalAlign=middle;resizable=0;points=[];autosize=1;" parent="1" vertex="1">
          <mxGeometry x="269" y="350" width="100" height="20" as="geometry" />
        </mxCell>
        <mxCell id="T3vL6f9uhzSgvhDSYpIT-7" value="id_carrito" style="text;html=1;align=center;verticalAlign=middle;resizable=0;points=[];autosize=1;" parent="1" vertex="1">
          <mxGeometry x="369" y="345" width="70" height="20" as="geometry" />
        </mxCell>
        <mxCell id="zt8ALn9wqM6WxY6WZwOs-7" value="" style="ellipse;whiteSpace=wrap;html=1;fillColor=#FFFFFF;" parent="1" vertex="1">
          <mxGeometry x="269" y="245" width="20" height="20" as="geometry" />
        </mxCell>
        <mxCell id="zt8ALn9wqM6WxY6WZwOs-8" value="" style="endArrow=none;html=1;exitX=0.186;exitY=0.02;exitDx=0;exitDy=0;exitPerimeter=0;" parent="1" source="6MHuE7Aki8oT2BPWVEkP-1" target="zt8ALn9wqM6WxY6WZwOs-7" edge="1">
          <mxGeometry width="50" height="50" relative="1" as="geometry">
            <mxPoint x="277" y="294" as="sourcePoint" />
            <mxPoint x="522" y="414" as="targetPoint" />
          </mxGeometry>
        </mxCell>
        <mxCell id="zt8ALn9wqM6WxY6WZwOs-9" value="fecha_creacion" style="text;html=1;align=center;verticalAlign=middle;resizable=0;points=[];autosize=1;" parent="1" vertex="1">
          <mxGeometry x="218" y="229" width="100" height="20" as="geometry" />
        </mxCell>
      </root>
    </mxGraphModel>
  </diagram>
  <diagram id="VW_XBs6m2YfaLqQFxUcZ" name="MER">
    <mxGraphModel dx="1707" dy="1621" grid="1" gridSize="10" guides="1" tooltips="1" connect="1" arrows="1" fold="1" page="1" pageScale="1" pageWidth="827" pageHeight="1169" math="0" shadow="0">
      <root>
        <mxCell id="Z3spTxhH57qIlpv7ylv0-0" />
        <mxCell id="Z3spTxhH57qIlpv7ylv0-1" parent="Z3spTxhH57qIlpv7ylv0-0" />
        <mxCell id="l-ne9ccshcU57YY2pR9I-0" value="PERSONA" style="rounded=0;whiteSpace=wrap;html=1;fontStyle=1;fillColor=#a20025;strokeColor=#6F0000;fontColor=#ffffff;" parent="Z3spTxhH57qIlpv7ylv0-1" vertex="1">
          <mxGeometry x="-31.869999999999997" y="86.5" width="105" height="50" as="geometry" />
        </mxCell>
        <mxCell id="l-ne9ccshcU57YY2pR9I-80" style="edgeStyle=orthogonalEdgeStyle;rounded=0;orthogonalLoop=1;jettySize=auto;html=1;endArrow=none;endFill=0;" parent="Z3spTxhH57qIlpv7ylv0-1" source="l-ne9ccshcU57YY2pR9I-50" target="l-ne9ccshcU57YY2pR9I-79" edge="1">
          <mxGeometry relative="1" as="geometry">
            <Array as="points">
              <mxPoint x="60" y="209" />
              <mxPoint x="60" y="209" />
            </Array>
          </mxGeometry>
        </mxCell>
        <mxCell id="MzJG05x5XLoFThyvNWXc-15" style="edgeStyle=orthogonalEdgeStyle;rounded=0;orthogonalLoop=1;jettySize=auto;html=1;endArrow=none;endFill=0;" parent="Z3spTxhH57qIlpv7ylv0-1" source="l-ne9ccshcU57YY2pR9I-50" target="MzJG05x5XLoFThyvNWXc-13" edge="1">
          <mxGeometry relative="1" as="geometry">
            <Array as="points">
              <mxPoint x="70" y="329" />
            </Array>
          </mxGeometry>
        </mxCell>
        <mxCell id="l-ne9ccshcU57YY2pR9I-50" value="PRODUCTO" style="rounded=0;whiteSpace=wrap;html=1;fontStyle=1;fillColor=#a20025;strokeColor=#6F0000;fontColor=#ffffff;" parent="Z3spTxhH57qIlpv7ylv0-1" vertex="1">
          <mxGeometry x="54.99" y="185.5" width="110" height="50" as="geometry" />
        </mxCell>
        <mxCell id="l-ne9ccshcU57YY2pR9I-81" style="edgeStyle=orthogonalEdgeStyle;rounded=0;orthogonalLoop=1;jettySize=auto;html=1;endArrow=none;endFill=0;" parent="Z3spTxhH57qIlpv7ylv0-1" source="l-ne9ccshcU57YY2pR9I-65" target="l-ne9ccshcU57YY2pR9I-79" edge="1">
          <mxGeometry relative="1" as="geometry" />
        </mxCell>
        <mxCell id="hhBCpjIa5pnvO6Dx_Ga9-7" style="edgeStyle=orthogonalEdgeStyle;rounded=0;orthogonalLoop=1;jettySize=auto;html=1;endArrow=none;endFill=0;" parent="Z3spTxhH57qIlpv7ylv0-1" source="l-ne9ccshcU57YY2pR9I-65" target="hhBCpjIa5pnvO6Dx_Ga9-6" edge="1">
          <mxGeometry relative="1" as="geometry">
            <Array as="points">
              <mxPoint x="-239" y="115" />
            </Array>
          </mxGeometry>
        </mxCell>
        <mxCell id="l-ne9ccshcU57YY2pR9I-65" value="CARRITO" style="rounded=0;whiteSpace=wrap;html=1;fontStyle=1;fillColor=#a20025;strokeColor=#6F0000;fontColor=#ffffff;" parent="Z3spTxhH57qIlpv7ylv0-1" vertex="1">
          <mxGeometry x="-290" y="184.49999999999994" width="102.5" height="50" as="geometry" />
        </mxCell>
        <mxCell id="l-ne9ccshcU57YY2pR9I-79" value="carrito_producto" style="rhombus;whiteSpace=wrap;html=1;fillColor=#fff2cc;strokeColor=#d6b656;" parent="Z3spTxhH57qIlpv7ylv0-1" vertex="1">
          <mxGeometry x="-122.24000000000001" y="184" width="108.75" height="50" as="geometry" />
        </mxCell>
        <mxCell id="l-ne9ccshcU57YY2pR9I-82" value="N&amp;nbsp;: M" style="text;html=1;align=center;verticalAlign=middle;resizable=0;points=[];autosize=1;fontStyle=1" parent="Z3spTxhH57qIlpv7ylv0-1" vertex="1">
          <mxGeometry x="-87.86000000000001" y="162" width="40" height="20" as="geometry" />
        </mxCell>
        <mxCell id="l-ne9ccshcU57YY2pR9I-112" value="" style="ellipse;whiteSpace=wrap;html=1;aspect=fixed;" parent="Z3spTxhH57qIlpv7ylv0-1" vertex="1">
          <mxGeometry x="-31.870000000000005" y="233.57" width="20" height="20" as="geometry" />
        </mxCell>
        <mxCell id="l-ne9ccshcU57YY2pR9I-113" value="" style="endArrow=none;html=1;" parent="Z3spTxhH57qIlpv7ylv0-1" target="l-ne9ccshcU57YY2pR9I-112" edge="1">
          <mxGeometry width="50" height="50" relative="1" as="geometry">
            <mxPoint x="-49.681376668588086" y="225.4209727510086" as="sourcePoint" />
            <mxPoint x="183.13" y="191.57" as="targetPoint" />
          </mxGeometry>
        </mxCell>
        <mxCell id="l-ne9ccshcU57YY2pR9I-114" value="cantidad" style="text;html=1;align=center;verticalAlign=middle;resizable=0;points=[];autosize=1;" parent="Z3spTxhH57qIlpv7ylv0-1" vertex="1">
          <mxGeometry x="-44.99000000000001" y="255" width="60" height="20" as="geometry" />
        </mxCell>
        <mxCell id="MzJG05x5XLoFThyvNWXc-2" value="CUENTA" style="rounded=0;whiteSpace=wrap;html=1;fontStyle=1;fillColor=#a20025;strokeColor=#6F0000;fontColor=#ffffff;" parent="Z3spTxhH57qIlpv7ylv0-1" vertex="1">
          <mxGeometry x="-290" y="-4.25" width="102.5" height="50" as="geometry" />
        </mxCell>
        <mxCell id="MzJG05x5XLoFThyvNWXc-5" style="edgeStyle=orthogonalEdgeStyle;rounded=0;orthogonalLoop=1;jettySize=auto;html=1;endArrow=none;endFill=0;" parent="Z3spTxhH57qIlpv7ylv0-1" source="MzJG05x5XLoFThyvNWXc-3" target="l-ne9ccshcU57YY2pR9I-0" edge="1">
          <mxGeometry relative="1" as="geometry">
            <Array as="points">
              <mxPoint x="-20" y="20" />
            </Array>
          </mxGeometry>
        </mxCell>
        <mxCell id="MzJG05x5XLoFThyvNWXc-7" style="edgeStyle=orthogonalEdgeStyle;rounded=0;orthogonalLoop=1;jettySize=auto;html=1;endArrow=none;endFill=0;" parent="Z3spTxhH57qIlpv7ylv0-1" source="MzJG05x5XLoFThyvNWXc-3" target="MzJG05x5XLoFThyvNWXc-2" edge="1">
          <mxGeometry relative="1" as="geometry" />
        </mxCell>
        <mxCell id="MzJG05x5XLoFThyvNWXc-3" value="usuario_rol" style="rhombus;whiteSpace=wrap;html=1;fillColor=#fff2cc;strokeColor=#d6b656;" parent="Z3spTxhH57qIlpv7ylv0-1" vertex="1">
          <mxGeometry x="-146.25" y="-1.25" width="100" height="45" as="geometry" />
        </mxCell>
        <mxCell id="MzJG05x5XLoFThyvNWXc-8" value="N : 1" style="text;html=1;align=center;verticalAlign=middle;resizable=0;points=[];autosize=1;fontStyle=1" parent="Z3spTxhH57qIlpv7ylv0-1" vertex="1">
          <mxGeometry x="-121.25" y="-32" width="50" height="30" as="geometry" />
        </mxCell>
        <mxCell id="MzJG05x5XLoFThyvNWXc-16" style="edgeStyle=orthogonalEdgeStyle;rounded=0;orthogonalLoop=1;jettySize=auto;html=1;endArrow=none;endFill=0;" parent="Z3spTxhH57qIlpv7ylv0-1" source="MzJG05x5XLoFThyvNWXc-11" target="MzJG05x5XLoFThyvNWXc-13" edge="1">
          <mxGeometry relative="1" as="geometry" />
        </mxCell>
        <mxCell id="MzJG05x5XLoFThyvNWXc-11" value="CATEGORIA" style="rounded=0;whiteSpace=wrap;html=1;fontStyle=1;fillColor=#a20025;strokeColor=#6F0000;fontColor=#ffffff;" parent="Z3spTxhH57qIlpv7ylv0-1" vertex="1">
          <mxGeometry x="-288.75" y="304.25" width="110" height="50" as="geometry" />
        </mxCell>
        <mxCell id="MzJG05x5XLoFThyvNWXc-13" value="categoria_prod" style="rhombus;whiteSpace=wrap;html=1;fillColor=#fff2cc;strokeColor=#d6b656;rotation=0;" parent="Z3spTxhH57qIlpv7ylv0-1" vertex="1">
          <mxGeometry x="-106.24000000000001" y="303" width="121.25" height="52.5" as="geometry" />
        </mxCell>
        <mxCell id="MzJG05x5XLoFThyvNWXc-14" value="N : M" style="text;html=1;align=center;verticalAlign=middle;resizable=0;points=[];autosize=1;fontStyle=1" parent="Z3spTxhH57qIlpv7ylv0-1" vertex="1">
          <mxGeometry x="-62.620000000000005" y="281" width="40" height="20" as="geometry" />
        </mxCell>
        <mxCell id="hhBCpjIa5pnvO6Dx_Ga9-8" style="edgeStyle=orthogonalEdgeStyle;rounded=0;orthogonalLoop=1;jettySize=auto;html=1;endArrow=none;endFill=0;" parent="Z3spTxhH57qIlpv7ylv0-1" source="hhBCpjIa5pnvO6Dx_Ga9-6" target="l-ne9ccshcU57YY2pR9I-0" edge="1">
          <mxGeometry relative="1" as="geometry">
            <Array as="points">
              <mxPoint x="-70" y="112" />
              <mxPoint x="-70" y="112" />
            </Array>
          </mxGeometry>
        </mxCell>
        <mxCell id="hhBCpjIa5pnvO6Dx_Ga9-6" value="tiene_carrito" style="rhombus;whiteSpace=wrap;html=1;fillColor=#fff2cc;strokeColor=#d6b656;" parent="Z3spTxhH57qIlpv7ylv0-1" vertex="1">
          <mxGeometry x="-196.62" y="88" width="108.75" height="50" as="geometry" />
        </mxCell>
        <mxCell id="hhBCpjIa5pnvO6Dx_Ga9-9" value="N&amp;nbsp;: 1" style="text;html=1;align=center;verticalAlign=middle;resizable=0;points=[];autosize=1;fontStyle=1" parent="Z3spTxhH57qIlpv7ylv0-1" vertex="1">
          <mxGeometry x="-162.24" y="66.5" width="40" height="20" as="geometry" />
        </mxCell>
        <mxCell id="hhBCpjIa5pnvO6Dx_Ga9-23" value="" style="ellipse;whiteSpace=wrap;html=1;aspect=fixed;" parent="Z3spTxhH57qIlpv7ylv0-1" vertex="1">
          <mxGeometry x="-122.87" y="230.57" width="20" height="20" as="geometry" />
        </mxCell>
        <mxCell id="hhBCpjIa5pnvO6Dx_Ga9-24" value="" style="endArrow=none;html=1;" parent="Z3spTxhH57qIlpv7ylv0-1" source="l-ne9ccshcU57YY2pR9I-79" target="hhBCpjIa5pnvO6Dx_Ga9-23" edge="1">
          <mxGeometry width="50" height="50" relative="1" as="geometry">
            <mxPoint x="-146.2513766685882" y="229.42097275100855" as="sourcePoint" />
            <mxPoint x="86.56" y="195.57" as="targetPoint" />
          </mxGeometry>
        </mxCell>
        <mxCell id="hhBCpjIa5pnvO6Dx_Ga9-25" value="estado" style="text;html=1;align=center;verticalAlign=middle;resizable=0;points=[];autosize=1;" parent="Z3spTxhH57qIlpv7ylv0-1" vertex="1">
          <mxGeometry x="-137.87" y="252" width="50" height="20" as="geometry" />
        </mxCell>
        <mxCell id="zcw-TY9elH7gIa7R2bIG-10" style="edgeStyle=orthogonalEdgeStyle;rounded=0;orthogonalLoop=1;jettySize=auto;html=1;endArrow=none;endFill=0;" parent="Z3spTxhH57qIlpv7ylv0-1" source="zcw-TY9elH7gIa7R2bIG-7" target="zcw-TY9elH7gIa7R2bIG-8" edge="1">
          <mxGeometry relative="1" as="geometry" />
        </mxCell>
        <mxCell id="zcw-TY9elH7gIa7R2bIG-7" value="HISTORIAL_ INVENTARIO" style="rounded=0;whiteSpace=wrap;html=1;fontStyle=1;fillColor=#a20025;strokeColor=#6F0000;fontColor=#ffffff;" parent="Z3spTxhH57qIlpv7ylv0-1" vertex="1">
          <mxGeometry x="-290" y="390" width="165" height="50" as="geometry" />
        </mxCell>
        <mxCell id="zcw-TY9elH7gIa7R2bIG-11" style="edgeStyle=orthogonalEdgeStyle;rounded=0;orthogonalLoop=1;jettySize=auto;html=1;endArrow=none;endFill=0;" parent="Z3spTxhH57qIlpv7ylv0-1" source="zcw-TY9elH7gIa7R2bIG-8" target="l-ne9ccshcU57YY2pR9I-50" edge="1">
          <mxGeometry relative="1" as="geometry">
            <Array as="points">
              <mxPoint x="100" y="415" />
            </Array>
          </mxGeometry>
        </mxCell>
        <mxCell id="zcw-TY9elH7gIa7R2bIG-8" value="hist_prod" style="rhombus;whiteSpace=wrap;html=1;fillColor=#fff2cc;strokeColor=#d6b656;rotation=0;" parent="Z3spTxhH57qIlpv7ylv0-1" vertex="1">
          <mxGeometry x="-66.12" y="389.35" width="116.12" height="50.65" as="geometry" />
        </mxCell>
        <mxCell id="zcw-TY9elH7gIa7R2bIG-12" value="N : 1" style="text;html=1;align=center;verticalAlign=middle;resizable=0;points=[];autosize=1;fontStyle=1" parent="Z3spTxhH57qIlpv7ylv0-1" vertex="1">
          <mxGeometry x="-26.620000000000005" y="368.35" width="40" height="20" as="geometry" />
        </mxCell>
        <mxCell id="zcw-TY9elH7gIa7R2bIG-22" style="edgeStyle=orthogonalEdgeStyle;rounded=0;orthogonalLoop=1;jettySize=auto;html=1;endArrow=none;endFill=0;" parent="Z3spTxhH57qIlpv7ylv0-1" source="zcw-TY9elH7gIa7R2bIG-18" target="zcw-TY9elH7gIa7R2bIG-20" edge="1">
          <mxGeometry relative="1" as="geometry" />
        </mxCell>
        <mxCell id="zcw-TY9elH7gIa7R2bIG-18" value="CATASTRO" style="rounded=0;whiteSpace=wrap;html=1;fontStyle=1;fillColor=#a20025;strokeColor=#6F0000;fontColor=#ffffff;" parent="Z3spTxhH57qIlpv7ylv0-1" vertex="1">
          <mxGeometry x="-290" y="-122" width="102.5" height="50" as="geometry" />
        </mxCell>
        <mxCell id="zcw-TY9elH7gIa7R2bIG-23" style="edgeStyle=orthogonalEdgeStyle;rounded=0;orthogonalLoop=1;jettySize=auto;html=1;endArrow=none;endFill=0;" parent="Z3spTxhH57qIlpv7ylv0-1" source="zcw-TY9elH7gIa7R2bIG-20" target="l-ne9ccshcU57YY2pR9I-0" edge="1">
          <mxGeometry relative="1" as="geometry">
            <Array as="points">
              <mxPoint y="-96" />
            </Array>
          </mxGeometry>
        </mxCell>
        <mxCell id="zcw-TY9elH7gIa7R2bIG-20" value="tiene" style="rhombus;whiteSpace=wrap;html=1;fillColor=#fff2cc;strokeColor=#d6b656;" parent="Z3spTxhH57qIlpv7ylv0-1" vertex="1">
          <mxGeometry x="-111.87" y="-119.5" width="100" height="45" as="geometry" />
        </mxCell>
        <mxCell id="zcw-TY9elH7gIa7R2bIG-21" value="N : 1" style="text;html=1;align=center;verticalAlign=middle;resizable=0;points=[];autosize=1;fontStyle=1" parent="Z3spTxhH57qIlpv7ylv0-1" vertex="1">
          <mxGeometry x="-81.87000000000002" y="-150" width="40" height="20" as="geometry" />
        </mxCell>
        <mxCell id="4iy2LmIhVymXB1u0P0Rj-1" value="" style="ellipse;whiteSpace=wrap;html=1;aspect=fixed;" parent="Z3spTxhH57qIlpv7ylv0-1" vertex="1">
          <mxGeometry x="-131.25" y="158.94" width="20" height="20" as="geometry" />
        </mxCell>
        <mxCell id="4iy2LmIhVymXB1u0P0Rj-2" value="" style="endArrow=none;html=1;" parent="Z3spTxhH57qIlpv7ylv0-1" source="l-ne9ccshcU57YY2pR9I-79" target="4iy2LmIhVymXB1u0P0Rj-1" edge="1">
          <mxGeometry width="50" height="50" relative="1" as="geometry">
            <mxPoint x="-97.72142468208824" y="152.4957817553617" as="sourcePoint" />
            <mxPoint x="78.18" y="123.94" as="targetPoint" />
          </mxGeometry>
        </mxCell>
        <mxCell id="4iy2LmIhVymXB1u0P0Rj-3" value="precio" style="text;html=1;align=center;verticalAlign=middle;resizable=0;points=[];autosize=1;" parent="Z3spTxhH57qIlpv7ylv0-1" vertex="1">
          <mxGeometry x="-121.25" y="138.94" width="50" height="20" as="geometry" />
        </mxCell>
        <mxCell id="4iy2LmIhVymXB1u0P0Rj-4" value="" style="ellipse;whiteSpace=wrap;html=1;aspect=fixed;" parent="Z3spTxhH57qIlpv7ylv0-1" vertex="1">
          <mxGeometry x="-26.620000000000005" y="164" width="20" height="20" as="geometry" />
        </mxCell>
        <mxCell id="4iy2LmIhVymXB1u0P0Rj-5" value="" style="endArrow=none;html=1;" parent="Z3spTxhH57qIlpv7ylv0-1" source="l-ne9ccshcU57YY2pR9I-79" target="4iy2LmIhVymXB1u0P0Rj-4" edge="1">
          <mxGeometry width="50" height="50" relative="1" as="geometry">
            <mxPoint x="-39.6813766685882" y="235.42097275100855" as="sourcePoint" />
            <mxPoint x="-20" y="180" as="targetPoint" />
          </mxGeometry>
        </mxCell>
        <mxCell id="4iy2LmIhVymXB1u0P0Rj-6" value="fecha_agregado" style="text;html=1;align=center;verticalAlign=middle;resizable=0;points=[];autosize=1;" parent="Z3spTxhH57qIlpv7ylv0-1" vertex="1">
          <mxGeometry x="-63.06000000000001" y="144" width="110" height="20" as="geometry" />
        </mxCell>
      </root>
    </mxGraphModel>
  </diagram>
</mxfile>
